#!OML:ASF X:\für Bonn\!DataBase\2005_08_12_Daniel\c3d\Daniel.ASF
:FULLY-SPECIFIED
:DEGREES
93
root 2.67062 17.6526 17.493 -4.67094 14.8699 0.426628
lowerback 4.10071 2.26433 1.99596
upperback 1.24778 3.06521 -6.09703
thorax -0.566203 1.57167 -7.61858
lowerneck 1.41865 -5.33133 -3.24973
upperneck 11.9672 -7.34129 2.7134
head 3.9071 -3.66153 1.23711
rclavicle -9.18137e-015 5.56597e-014
rhumerus 30.5774 -5.14614 -57.2015
rradius 63.3516
rwrist -0.662903
rhand -21.0166 14.9501
rfingers 7.12502
rthumb 5.35834 -14.9621
lclavicle -9.18137e-015 5.56597e-014
lhumerus -33.8903 38.7749 64.9124
lradius 15.7576
lwrist -43.4999
lhand -3.8868 -6.78177
lfingers 7.12502
lthumb 21.8627 22.0031
rfemur 10.5774 15.96 21.6714
rtibia 12.9403
rfoot -27.1116 -27.3972
rtoes -10.3538
lfemur 0.125383 -16.8762 -19.5578
ltibia 26.4965
lfoot -21.3648 6.95842
ltoes -13.5347
94
root 2.66563 17.652 17.4974 -4.65925 15.0165 0.439749
lowerback 4.10256 2.33222 1.98229
upperback 1.23695 3.15559 -6.13452
thorax -0.563711 1.61754 -7.65442
lowerneck 1.41641 -5.43451 -3.31386
upperneck 12.0332 -7.48852 2.79734
head 3.94451 -3.7336 1.27004
rclavicle -8.85834e-015 -3.18055e-014
rhumerus 31.793 -5.3192 -56.6742
rradius 61.1015
rwrist -0.45866
rhand -20.2873 14.9499
rfingers 7.12502
rthumb 6.06241 -14.9434
lclavicle -8.85834e-015 -3.18055e-014
lhumerus -33.8454 38.7625 64.8939
lradius 15.7256
lwrist -43.4844
lhand -4.10645 -6.82458
lfingers 7.12502
lthumb 21.6517 21.9848
rfemur 10.6059 15.9163 21.6959
rtibia 12.9417
rfoot -27.2021 -27.4789
rtoes -10.3231
lfemur 0.0928314 -16.9381 -19.5427
ltibia 26.5046
lfoot -21.343 6.87062
ltoes -13.5433
95
root 2.66298 17.6518 17.5019 -4.65835 15.1572 0.440519
lowerback 4.10642 2.42581 2.04807
upperback 1.23273 3.28418 -6.21772
thorax -0.542263 1.68411 -7.78671
lowerneck 1.38828 -5.56648 -3.25799
upperneck 12.1031 -7.67631 2.87655
head 3.98367 -3.82037 1.27828
rclavicle -7.61594e-015 -4.77083e-014
rhumerus 32.9199 -5.54917 -56.1066
rradius 58.8368
rwrist -0.291864
rhand -19.6107 14.9254
rfingers 7.12502
rthumb 6.71567 -14.9482
lclavicle -7.61594e-015 -4.77083e-014
lhumerus -33.7488 38.6082 64.8781
lradius 15.726
lwrist -43.3848
lhand -4.34444 -6.9468
lfingers 7.12502
lthumb 21.4232 21.8887
rfemur 10.6434 15.8141 21.7079
rtibia 12.9309
rfoot -27.2518 -27.5059
rtoes -10.3108
lfemur 0.0758401 -17.0273 -19.5431
ltibia 26.5201
lfoot -21.3118 6.84806
ltoes -13.5394
96
root 2.65772 17.6514 17.5062 -4.66401 15.2941 0.439609
lowerback 4.14803 2.49952 2.06988
upperback 1.20532 3.3827 -6.27305
thorax -0.574302 1.73309 -7.86546
lowerneck 1.4376 -5.66151 -3.32073
upperneck 12.1298 -7.81885 3.01456
head 4.00049 -3.88867 1.33093
rclavicle 1.08151e-013 -9.38264e-014
rhumerus 34.0067 -5.65779 -55.4998
rradius 56.5922
rwrist -0.126875
rhand -18.9316 14.8465
rfingers 7.12502
rthumb 7.37118 -15.0051
lclavicle 1.08151e-013 -9.38264e-014
lhumerus -33.6803 38.3737 64.9044
lradius 15.7332
lwrist -43.1739
lhand -4.56804 -6.99305
lfingers 7.12502
lthumb 21.2084 21.8668
rfemur 10.6848 15.7519 21.7441
rtibia 12.921
rfoot -27.3124 -27.5738
rtoes -10.2991
lfemur 0.057889 -17.076 -19.513
ltibia 26.5319
lfoot -21.3066 6.75343
ltoes -13.5451
97
root 2.65475 17.6505 17.5103 -4.66407 15.4359 0.440193
lowerback 4.16594 2.59407 2.13498
upperback 1.1965 3.51232 -6.34705
thorax -0.564829 1.79973 -7.98861
lowerneck 1.43285 -5.79032 -3.31812
upperneck 12.1886 -8.00243 3.10053
head 4.0348 -3.97558 1.35143
rclavicle 1.58282e-014 1.27222e-014
rhumerus 35.0209 -5.81456 -54.8165
rradius 54.4209
rwrist -0.0610469
rhand -18.1563 14.6489
rfingers 7.12502
rthumb 8.11951 -15.1751
lclavicle 1.58282e-014 1.27222e-014
lhumerus -33.5892 38.184 64.9392
lradius 15.7397
lwrist -43.082
lhand -4.79899 -7.02358
lfingers 7.12502
lthumb 20.9865 21.861
rfemur 10.7295 15.702 21.7701
rtibia 12.9099
rfoot -27.3983 -27.6027
rtoes -10.1271
lfemur 0.0425123 -17.1939 -19.52
ltibia 26.5479
lfoot -21.2996 6.75873
ltoes -13.6439
98
root 2.65066 17.6498 17.5148 -4.66304 15.5778 0.441048
lowerback 4.18961 2.66152 2.16107
upperback 1.17934 3.60337 -6.39042
thorax -0.57719 1.84564 -8.05552
lowerneck 1.46411 -5.88717 -3.40711
upperneck 12.2075 -8.14429 3.21717
head 4.05322 -4.04538 1.40106
rclavicle -7.55879e-014 6.36111e-014
rhumerus 36.0307 -5.8604 -54.1228
rradius 52.2448
rwrist 0.10649
rhand -17.4657 14.4955
rfingers 7.12502
rthumb 8.78595 -15.3016
lclavicle -7.55879e-014 6.36111e-014
lhumerus -33.5574 38.0408 64.9367
lradius 15.761
lwrist -42.9706
lhand -5.0402 -7.15501
lfingers 7.12502
lthumb 20.7548 21.7551
rfemur 10.765 15.6223 21.7952
rtibia 12.9056
rfoot -27.4564 -27.6504
rtoes -10.1598
lfemur 0.0180284 -17.2294 -19.4994
ltibia 26.5599
lfoot -21.2831 6.68012
ltoes -13.7473
99
root 2.64661 17.6496 17.5177 -4.65194 15.7427 0.451634
lowerback 4.21476 2.73517 2.21158
upperback 1.17623 3.7046 -6.46566
thorax -0.570137 1.89807 -8.17108
lowerneck 1.43042 -5.99964 -3.4233
upperneck 12.2698 -8.30673 3.31653
head 4.09588 -4.12179 1.42903
rclavicle 6.23438e-014 -1.90833e-014
rhumerus 36.9362 -5.906 -53.3422
rradius 50.1826
rwrist 0.122209
rhand -16.8194 14.2338
rfingers 7.12502
rthumb 9.40962 -15.5362
lclavicle 6.23438e-014 -1.90833e-014
lhumerus -33.3884 37.7648 65.0299
lradius 15.746
lwrist -42.6893
lhand -5.22967 -7.18495
lfingers 7.12502
lthumb 20.5727 21.7449
rfemur 10.7826 15.5392 21.8065
rtibia 12.9047
rfoot -27.5256 -27.7147
rtoes -10.1356
lfemur -0.0322268 -17.2993 -19.4812
ltibia 26.5735
lfoot -21.2379 6.58431
ltoes -13.7639
100
root 2.64247 17.6486 17.5218 -4.66694 15.8653 0.451017
lowerback 4.26254 2.82685 2.27748
upperback 1.17422 3.83056 -6.53052
thorax -0.569875 1.96281 -8.2866
lowerneck 1.38591 -6.11056 -3.513
upperneck 12.3157 -8.4701 3.46209
head 4.14214 -4.20013 1.48491
rclavicle -6.21202e-015 4.92986e-014
rhumerus 37.8031 -5.94819 -52.5786
rradius 48.1332
rwrist 0.272729
rhand -16.2528 13.9392
rfingers 7.12502
rthumb 9.95626 -15.8053
lclavicle -6.21202e-015 4.92986e-014
lhumerus -33.293 37.658 65.0296
lradius 15.7275
lwrist -42.6793
lhand -5.4542 -7.20748
lfingers 7.12502
lthumb 20.357 21.7456
rfemur 10.8315 15.4817 21.8315
rtibia 12.9035
rfoot -27.6066 -27.7328
rtoes -9.91102
lfemur -0.0286289 -17.4003 -19.4856
ltibia 26.5859
lfoot -21.2397 6.58733
ltoes -13.7809
101
root 2.63876 17.6493 17.5259 -4.63437 16.0095 0.479347
lowerback 4.28632 2.89579 2.30919
upperback 1.1396 3.92327 -6.60316
thorax -0.596647 2.00905 -8.38955
lowerneck 1.43479 -6.19928 -3.59527
upperneck 12.3456 -8.60525 3.60729
head 4.16352 -4.26532 1.54366
rclavicle -2.81032e-014 5.56597e-014
rhumerus 38.6652 -5.92789 -51.8916
rradius 46.0555
rwrist 0.456065
rhand -15.7029 13.6759
rfingers 7.12502
rthumb 10.4868 -16.0425
lclavicle -2.81032e-014 5.56597e-014
lhumerus -33.1891 37.2099 65.1574
lradius 15.7972
lwrist -42.239
lhand -5.59755 -7.23164
lfingers 7.12502
lthumb 20.2192 21.736
rfemur 10.8276 15.3616 21.8019
rtibia 12.9058
rfoot -27.643 -27.7469
rtoes -9.91155
lfemur -0.0787507 -17.4725 -19.4982
ltibia 26.5967
lfoot -21.2204 6.54686
ltoes -13.8806
102
root 2.63458 17.6488 17.5293 -4.63432 16.1451 0.47839
lowerback 4.33724 2.98454 2.37199
upperback 1.12694 4.04478 -6.66163
thorax -0.609567 2.07084 -8.49717
lowerneck 1.44376 -6.30442 -3.62309
upperneck 12.3483 -8.75595 3.6958
head 4.17704 -4.33762 1.57229
rclavicle 2.83517e-014 -2.22639e-014
rhumerus 39.463 -5.93727 -51.1633
rradius 44.0386
rwrist 0.744271
rhand -15.2973 13.3527
rfingers 7.12502
rthumb 10.878 -16.3455
lclavicle 2.83517e-014 -2.22639e-014
lhumerus -33.0824 37.0141 65.2218
lradius 15.7992
lwrist -42.0768
lhand -5.78706 -7.21059
lfingers 7.12502
lthumb 20.037 21.7763
rfemur 10.8597 15.3025 21.8344
rtibia 12.9046
rfoot -27.7077 -27.8076
rtoes -9.88222
lfemur -0.113371 -17.5329 -19.4732
ltibia 26.6122
lfoot -21.2072 6.47002
ltoes -13.8954
103
root 2.63089 17.6482 17.5332 -4.63083 16.2926 0.48137
lowerback 4.38676 3.04584 2.43341
upperback 1.10989 4.12921 -6.72411
thorax -0.631701 2.1135 -8.60755
lowerneck 1.40853 -6.39118 -3.69591
upperneck 12.4069 -8.88414 3.80531
head 4.22257 -4.3991 1.61463
rclavicle -6.68413e-015 -1.59028e-015
rhumerus 40.344 -5.95847 -50.638
rradius 41.9654
rwrist 1.17111
rhand -14.8611 13.1527
rfingers 7.12502
rthumb 11.2988 -16.5229
lclavicle -6.68413e-015 -1.59028e-015
lhumerus -33.0038 36.7285 65.2822
lradius 15.8472
lwrist -41.8451
lhand -5.96728 -7.27022
lfingers 7.12502
lthumb 19.8638 21.7347
rfemur 10.8839 15.21 21.8475
rtibia 12.9039
rfoot -27.753 -27.8381
rtoes -9.90583
lfemur -0.137283 -17.6353 -19.4735
ltibia 26.6285
lfoot -21.1973 6.45071
ltoes -13.9954
